<svg xmlns="http://www.w3.org/2000/svg" xmlns:xlink="http://www.w3.org/1999/xlink" width="500" zoomAndPan="magnify" viewBox="0 0 375 374.999991" height="500" preserveAspectRatio="xMidYMid meet" version="1.0"><defs><clipPath id="3d03504c88"><path d="M 125.25 120 L 151.5 120 L 151.5 150.75 L 125.25 150.75 Z M 125.25 120 " clip-rule="nonzero"/></clipPath></defs><path fill="#1ba553" d="M 186.992188 0.339844 C 83.078125 0.691406 0.0273438 85.140625 1.382812 188.996094 C 1.445312 194.214844 1.726562 199.421875 2.226562 204.613281 C 2.730469 209.808594 3.449219 214.972656 4.386719 220.105469 C 5.324219 225.238281 6.476562 230.324219 7.84375 235.359375 C 9.210938 240.394531 10.789062 245.363281 12.574219 250.269531 C 14.363281 255.171875 16.351562 259.988281 18.546875 264.726562 C 20.742188 269.460938 23.132812 274.09375 25.71875 278.628906 C 28.304688 283.160156 31.074219 287.578125 34.035156 291.875 C 36.992188 296.175781 40.128906 300.339844 43.4375 304.375 C 43.960938 305.011719 44.429688 305.683594 44.847656 306.390625 C 45.269531 307.101562 45.632812 307.835938 45.941406 308.597656 C 46.253906 309.359375 46.503906 310.136719 46.695312 310.9375 C 46.890625 311.738281 47.023438 312.546875 47.09375 313.367188 C 47.164062 314.183594 47.175781 315.003906 47.125 315.824219 C 47.074219 316.644531 46.960938 317.457031 46.789062 318.261719 C 46.617188 319.066406 46.382812 319.851562 46.09375 320.621094 C 45.804688 321.390625 45.457031 322.132812 45.054688 322.851562 L 29.011719 351.589844 C 24.5625 359.558594 31.8125 368.980469 40.65625 366.726562 L 95.003906 352.898438 C 96.898438 352.417969 98.820312 352.277344 100.765625 352.476562 C 102.710938 352.675781 104.5625 353.203125 106.320312 354.058594 C 118.335938 359.894531 130.839844 364.378906 143.824219 367.511719 C 156.8125 370.644531 169.984375 372.355469 183.34375 372.640625 C 287.820312 375.003906 373.574219 291.5625 373.902344 187.109375 C 374.226562 83.800781 290.359375 -0.0078125 186.992188 0.339844 Z M 187.636719 349.75 C 184.960938 349.75 182.292969 349.683594 179.621094 349.550781 C 176.953125 349.421875 174.289062 349.226562 171.628906 348.964844 C 168.96875 348.703125 166.316406 348.375 163.671875 347.980469 C 161.027344 347.589844 158.394531 347.132812 155.773438 346.613281 C 153.152344 346.089844 150.546875 345.507812 147.953125 344.859375 C 145.359375 344.207031 142.785156 343.496094 140.226562 342.71875 C 137.667969 341.945312 135.132812 341.109375 132.617188 340.207031 C 130.097656 339.308594 127.605469 338.347656 125.136719 337.324219 C 122.667969 336.300781 120.226562 335.21875 117.808594 334.078125 C 115.394531 332.933594 113.007812 331.734375 110.648438 330.476562 C 108.292969 329.214844 105.96875 327.898438 103.675781 326.527344 C 101.382812 325.152344 99.125 323.722656 96.902344 322.238281 C 94.679688 320.757812 92.496094 319.21875 90.347656 317.625 C 88.203125 316.035156 86.09375 314.390625 84.027344 312.699219 C 81.960938 311.003906 79.941406 309.257812 77.960938 307.464844 C 75.980469 305.671875 74.042969 303.828125 72.152344 301.941406 C 70.265625 300.050781 68.421875 298.117188 66.625 296.136719 C 64.832031 294.15625 63.085938 292.136719 61.390625 290.070312 C 59.695312 288.003906 58.050781 285.898438 56.457031 283.753906 C 54.867188 281.609375 53.328125 279.425781 51.84375 277.203125 C 50.359375 274.984375 48.929688 272.726562 47.554688 270.433594 C 46.179688 268.144531 44.863281 265.820312 43.605469 263.464844 C 42.34375 261.109375 41.140625 258.722656 40 256.308594 C 38.855469 253.890625 37.773438 251.449219 36.75 248.984375 C 35.726562 246.515625 34.765625 244.023438 33.867188 241.507812 C 32.964844 238.992188 32.128906 236.457031 31.351562 233.898438 C 30.574219 231.34375 29.863281 228.769531 29.214844 226.179688 C 28.5625 223.585938 27.980469 220.980469 27.457031 218.359375 C 26.9375 215.742188 26.480469 213.109375 26.085938 210.464844 C 25.695312 207.824219 25.367188 205.171875 25.105469 202.515625 C 24.84375 199.855469 24.648438 197.191406 24.515625 194.523438 C 24.386719 191.855469 24.320312 189.1875 24.320312 186.515625 C 24.320312 96.363281 97.441406 23.28125 187.636719 23.28125 C 277.480469 23.28125 350.382812 95.796875 350.949219 185.464844 C 351.515625 275.4375 277.652344 349.75 187.636719 349.75 Z M 187.636719 349.75 " fill-opacity="1" fill-rule="nonzero"/><path fill="#1ba553" d="M 158.445312 107.15625 L 158.523438 107.304688 L 168.261719 126.613281 C 168.785156 127.652344 169.222656 128.726562 169.574219 129.835938 C 169.925781 130.945312 170.183594 132.074219 170.351562 133.226562 C 170.519531 134.375 170.59375 135.53125 170.574219 136.695312 C 170.558594 137.859375 170.445312 139.011719 170.238281 140.15625 C 170.035156 141.300781 169.738281 142.421875 169.355469 143.519531 C 168.96875 144.617188 168.496094 145.675781 167.9375 146.695312 C 167.382812 147.71875 166.746094 148.6875 166.035156 149.605469 C 165.320312 150.527344 164.539062 151.382812 163.6875 152.171875 C 162.839844 152.960938 162.058594 153.808594 161.347656 154.722656 C 160.636719 155.632812 160 156.59375 159.445312 157.609375 C 158.886719 158.621094 158.417969 159.671875 158.027344 160.761719 C 157.640625 161.851562 157.34375 162.964844 157.136719 164.101562 C 156.925781 165.242188 156.8125 166.386719 156.785156 167.542969 C 156.761719 168.699219 156.832031 169.847656 156.992188 170.992188 C 157.152344 172.140625 157.40625 173.261719 157.746094 174.367188 C 158.089844 175.472656 158.515625 176.542969 159.03125 177.578125 C 164.878906 189.316406 175.007812 205.492188 190.46875 217.164062 C 191.328125 217.816406 192.234375 218.402344 193.183594 218.921875 C 194.132812 219.441406 195.117188 219.886719 196.132812 220.257812 C 197.148438 220.628906 198.183594 220.921875 199.246094 221.136719 C 200.304688 221.355469 201.375 221.492188 202.453125 221.546875 C 203.535156 221.605469 204.613281 221.578125 205.691406 221.476562 C 206.765625 221.371094 207.828125 221.1875 208.878906 220.921875 C 209.925781 220.660156 210.949219 220.320312 211.949219 219.902344 C 212.949219 219.484375 213.910156 218.996094 214.832031 218.4375 L 221.105469 214.621094 C 222.511719 213.765625 224 213.078125 225.5625 212.5625 C 227.125 212.046875 228.726562 211.710938 230.367188 211.5625 C 232.007812 211.410156 233.644531 211.445312 235.273438 211.667969 C 236.90625 211.890625 238.492188 212.292969 240.03125 212.878906 L 264.964844 222.355469 C 265.628906 222.605469 266.277344 222.890625 266.910156 223.203125 C 267.542969 223.519531 268.160156 223.867188 268.761719 224.242188 C 269.363281 224.617188 269.941406 225.023438 270.503906 225.453125 C 271.0625 225.886719 271.601562 226.347656 272.117188 226.832031 C 272.632812 227.320312 273.125 227.828125 273.589844 228.363281 C 274.054688 228.894531 274.492188 229.453125 274.902344 230.027344 C 275.3125 230.605469 275.695312 231.203125 276.046875 231.816406 C 276.398438 232.429688 276.722656 233.058594 277.011719 233.707031 C 277.300781 234.351562 277.558594 235.011719 277.785156 235.683594 C 278.011719 236.355469 278.203125 237.035156 278.359375 237.722656 C 278.519531 238.414062 278.644531 239.109375 278.734375 239.8125 C 278.824219 240.515625 278.878906 241.222656 278.898438 241.929688 C 278.921875 242.636719 278.90625 243.34375 278.859375 244.050781 C 278.808594 244.757812 278.726562 245.457031 278.609375 246.15625 C 278.492188 246.855469 278.339844 247.546875 278.152344 248.230469 C 277.96875 248.914062 277.75 249.585938 277.496094 250.246094 C 277.207031 251.007812 276.875 251.75 276.5 252.476562 L 269.589844 265.859375 C 269.03125 266.945312 268.386719 267.972656 267.652344 268.945312 C 266.917969 269.917969 266.109375 270.824219 265.222656 271.660156 C 264.335938 272.496094 263.386719 273.253906 262.375 273.929688 C 261.359375 274.605469 260.296875 275.191406 259.183594 275.6875 C 258.070312 276.183594 256.921875 276.585938 255.742188 276.886719 C 254.5625 277.191406 253.363281 277.394531 252.148438 277.492188 C 250.933594 277.59375 249.71875 277.59375 248.503906 277.488281 C 247.289062 277.382812 246.09375 277.179688 244.914062 276.871094 C 205.753906 266.746094 112.425781 231.546875 104.90625 125.105469 C 104.832031 124.054688 104.832031 123.007812 104.910156 121.957031 C 104.992188 120.90625 105.144531 119.867188 105.375 118.839844 C 105.609375 117.8125 105.910156 116.804688 106.289062 115.824219 C 106.667969 114.839844 107.113281 113.890625 107.632812 112.972656 C 108.148438 112.054688 108.730469 111.175781 109.375 110.34375 C 110.019531 109.511719 110.71875 108.730469 111.480469 108 C 112.238281 107.269531 113.046875 106.597656 113.902344 105.984375 C 114.761719 105.371094 115.65625 104.824219 116.59375 104.34375 L 129.3125 97.8125 C 129.941406 97.488281 130.585938 97.195312 131.246094 96.9375 C 131.90625 96.675781 132.574219 96.449219 133.257812 96.253906 C 133.9375 96.058594 134.625 95.898438 135.324219 95.769531 C 136.019531 95.644531 136.722656 95.550781 137.429688 95.492188 C 138.132812 95.433594 138.84375 95.410156 139.550781 95.421875 C 140.257812 95.433594 140.964844 95.480469 141.667969 95.558594 C 142.375 95.640625 143.070312 95.753906 143.765625 95.90625 C 144.457031 96.054688 145.140625 96.238281 145.816406 96.453125 C 146.488281 96.667969 147.152344 96.917969 147.800781 97.199219 C 148.453125 97.480469 149.085938 97.792969 149.707031 98.136719 C 150.328125 98.480469 150.929688 98.855469 151.511719 99.257812 C 152.09375 99.660156 152.65625 100.089844 153.195312 100.550781 C 153.738281 101.007812 154.253906 101.492188 154.746094 102 C 155.238281 102.507812 155.707031 103.039062 156.148438 103.59375 C 156.585938 104.148438 157 104.722656 157.382812 105.320312 C 157.769531 105.914062 158.121094 106.527344 158.445312 107.15625 Z M 158.445312 107.15625 " fill-opacity="1" fill-rule="nonzero"/><g clip-path="url(#3d03504c88)"><path fill="#1ba553" d="M 125.25 120 L 151.5 120 L 151.5 150.761719 L 125.25 150.761719 Z M 125.25 120 " fill-opacity="1" fill-rule="nonzero"/></g></svg>