<svg xmlns="http://www.w3.org/2000/svg" xmlns:xlink="http://www.w3.org/1999/xlink" width="500" zoomAndPan="magnify" viewBox="0 0 375 374.999991" height="500" preserveAspectRatio="xMidYMid meet" version="1.0"><defs><g/></defs><rect x="-37.5" width="450" fill="#ffffff" y="-37.499999" height="449.999989" fill-opacity="1"/><rect x="-37.5" width="450" fill="#f6c3b6" y="-37.499999" height="449.999989" fill-opacity="1"/><g fill="#ffffff" fill-opacity="1"><g transform="translate(0.0000045, 273.470122)"><g><path d="M 66.226562 -40.5 C 66.226562 -34.046875 66.605469 -28.824219 67.371094 -24.835938 C 68.136719 -20.84375 69.789062 -17.789062 72.335938 -15.664062 C 74.886719 -13.542969 78.492188 -12.054688 83.164062 -11.207031 C 87.832031 -10.359375 93.988281 -9.847656 101.628906 -9.679688 L 101.628906 0 L 11.460938 0 L 11.460938 -9.679688 C 17.40625 -9.847656 22.203125 -10.359375 25.851562 -11.207031 C 29.503906 -12.054688 32.347656 -13.5 34.386719 -15.539062 C 36.421875 -17.574219 37.78125 -20.460938 38.460938 -24.199219 C 39.140625 -27.933594 39.480469 -32.773438 39.480469 -38.714844 L 39.480469 -157.410156 C 39.480469 -163.355469 39.183594 -168.152344 38.589844 -171.800781 C 37.996094 -175.453125 36.804688 -178.339844 35.023438 -180.460938 C 33.238281 -182.585938 30.648438 -184.027344 27.253906 -184.792969 C 23.859375 -185.554688 19.441406 -186.109375 14.007812 -186.449219 L 14.007812 -196.128906 L 161.230469 -196.128906 L 164.035156 -147.476562 L 155.117188 -147.476562 C 154.101562 -154.777344 152.488281 -160.765625 150.277344 -165.433594 C 148.070312 -170.105469 144.972656 -173.796875 140.980469 -176.515625 C 136.992188 -179.230469 131.941406 -181.140625 125.828125 -182.246094 C 119.714844 -183.347656 112.074219 -183.902344 102.902344 -183.902344 L 70.554688 -183.902344 C 67.667969 -183.902344 66.226562 -182.457031 66.226562 -179.570312 L 66.226562 -102.648438 C 74.375 -102.648438 81.378906 -103.117188 87.238281 -104.050781 C 93.097656 -104.984375 97.9375 -106.640625 101.757812 -109.015625 C 105.578125 -111.394531 108.507812 -114.621094 110.542969 -118.695312 C 112.582031 -122.769531 113.855469 -128.035156 114.363281 -134.488281 L 123.28125 -134.488281 L 123.28125 -59.855469 L 114.363281 -59.855469 C 113.515625 -66.308594 112.15625 -71.660156 110.289062 -75.902344 C 108.421875 -80.148438 105.664062 -83.460938 102.011719 -85.835938 C 98.359375 -88.214844 93.648438 -89.914062 87.875 -90.929688 C 82.101562 -91.949219 74.886719 -92.460938 66.226562 -92.460938 Z M 66.226562 -40.5 "/></g></g></g><g fill="#ffffff" fill-opacity="1"><g transform="translate(170.649694, 273.470122)"><g><path d="M 175.496094 -196.128906 L 182.628906 -196.128906 L 184.917969 -137.542969 L 175.496094 -137.542969 C 171.757812 -152.488281 164.542969 -164.203125 153.84375 -172.695312 C 143.148438 -181.183594 130.242188 -185.429688 115.128906 -185.429688 C 104.769531 -185.429688 95.515625 -183.390625 87.367188 -179.316406 C 79.214844 -175.242188 72.335938 -169.382812 66.734375 -161.742188 C 61.128906 -154.101562 56.84375 -144.761719 53.871094 -133.722656 C 50.898438 -122.683594 49.414062 -110.203125 49.414062 -96.28125 C 49.414062 -68.941406 55.101562 -47.929688 66.480469 -33.238281 C 77.855469 -18.550781 94.328125 -11.207031 115.894531 -11.207031 C 148.664062 -11.207031 169.722656 -28.613281 179.0625 -63.421875 L 189.503906 -63.421875 L 189.503906 0 L 180.589844 0 L 174.730469 -20.121094 C 156.902344 -5.007812 135.335938 2.546875 110.035156 2.546875 C 95.601562 2.546875 82.570312 0.253906 70.9375 -4.328125 C 59.304688 -8.914062 49.371094 -15.410156 41.136719 -23.816406 C 32.898438 -32.222656 26.53125 -42.453125 22.03125 -54.507812 C 17.53125 -66.5625 15.28125 -79.980469 15.28125 -94.753906 C 15.28125 -110.203125 17.660156 -124.296875 22.414062 -137.035156 C 27.167969 -149.769531 33.835938 -160.722656 42.410156 -169.890625 C 50.984375 -179.0625 61.257812 -186.152344 73.230469 -191.160156 C 85.199219 -196.167969 98.402344 -198.675781 112.835938 -198.675781 C 123.023438 -198.675781 132.621094 -197.230469 141.617188 -194.34375 C 150.617188 -191.457031 160.382812 -186.789062 170.910156 -180.335938 Z M 175.496094 -196.128906 "/></g></g></g></svg>